# xmcd
#
# Track frame offsets:
#	150
#	15735
#	32019
#	47271
#	59954
#	76611
#	92497
#	106513
#	122044
#	136579
#
# Disc length: 1988 seconds
#
# Revision: 6
# Processed by: cddbd v1.5.2PL0 Copyright (c) Steve Scherf et al.
# Submitted via: EasyCDDAExtractor 12.0.4.1
#
DISCID=6b07c20a
DTITLE=ก๊อต จักรพรรณ์ อาบครบุรี - รักคุณยิ่งกว่าใคร
DYEAR=2540
DGENRE=Folklore
TTITLE0=รักคุณยิ่งกว่าใคร
TTITLE1=เศรษฐกิจหารสอง
TTITLE2=คนรักคนลวง
TTITLE3=ถามอีกที
TTITLE4=แอ่วเหนือ
TTITLE5=แด่แม่
TTITLE6=รักไม่รักก็บอก
TTITLE7=แฟนเอ๋ยแฟนเรา
TTITLE8=โอ๊ยปวดใจ
TTITLE9=ขอบคุณ
EXTD=
EXTT0=
EXTT1=
EXTT2=
EXTT3=
EXTT4=
EXTT5=
EXTT6=
EXTT7=
EXTT8=
EXTT9=
PLAYORDER=
